<svg width="14" height="18" viewBox="0 0 14 18" fill="none" xmlns="http://www.w3.org/2000/svg">
<path d="M13.7188 7.75H8.25C7.75272 7.75 7.27581 7.55246 6.92417 7.20083C6.57254 6.84919 6.375 6.37228 6.375 5.875V0.40625C6.375 0.36481 6.35854 0.325067 6.32924 0.295765C6.29993 0.266462 6.26019 0.25 6.21875 0.25H2.625C1.96196 0.25 1.32607 0.513392 0.857233 0.982233C0.388392 1.45107 0.125 2.08696 0.125 2.75V15.25C0.125 15.913 0.388392 16.5489 0.857233 17.0178C1.32607 17.4866 1.96196 17.75 2.625 17.75H11.375C12.038 17.75 12.6739 17.4866 13.1428 17.0178C13.6116 16.5489 13.875 15.913 13.875 15.25V7.90625C13.875 7.86481 13.8585 7.82507 13.8292 7.79576C13.7999 7.76646 13.7602 7.75 13.7188 7.75Z" fill="white" fill-opacity="0.4"/>
</svg>
