<svg width="18" height="19" viewBox="0 0 18 19" fill="none" xmlns="http://www.w3.org/2000/svg">
<path d="M10.9558 0.549988L13.6058 4.26332L15.3533 3.66749L16.9483 8.33332H17.75V18.3333H0.25V8.33332H0.675V8.32499L1.215 8.32999L10.9558 0.549988ZM6.83083 8.33332H15.1875L14.3233 5.80582L13.055 6.21166L6.83083 8.33332ZM5.5325 7.01416L11.9583 4.82499L10.6217 2.94999L5.5325 7.01416ZM3.58333 9.99999H1.91667V11.6667C2.35869 11.6667 2.78262 11.4911 3.09518 11.1785C3.40774 10.8659 3.58333 10.442 3.58333 9.99999ZM11.9167 13.3333C11.9167 12.9503 11.8412 12.571 11.6946 12.2172C11.5481 11.8633 11.3332 11.5418 11.0624 11.2709C10.7916 11.0001 10.47 10.7853 10.1162 10.6387C9.76229 10.4921 9.38302 10.4167 9 10.4167C8.61698 10.4167 8.23771 10.4921 7.88384 10.6387C7.52997 10.7853 7.20844 11.0001 6.93761 11.2709C6.66677 11.5418 6.45193 11.8633 6.30535 12.2172C6.15877 12.571 6.08333 12.9503 6.08333 13.3333C6.08333 14.1069 6.39062 14.8487 6.93761 15.3957C7.48459 15.9427 8.22645 16.25 9 16.25C9.77355 16.25 10.5154 15.9427 11.0624 15.3957C11.6094 14.8487 11.9167 14.1069 11.9167 13.3333ZM16.0833 16.6667V15C15.6413 15 15.2174 15.1756 14.9048 15.4881C14.5923 15.8007 14.4167 16.2246 14.4167 16.6667H16.0833ZM14.4167 9.99999C14.4167 10.442 14.5923 10.8659 14.9048 11.1785C15.2174 11.4911 15.6413 11.6667 16.0833 11.6667V9.99999H14.4167ZM1.91667 16.6667H3.58333C3.58333 16.2246 3.40774 15.8007 3.09518 15.4881C2.78262 15.1756 2.35869 15 1.91667 15V16.6667Z" fill="white" fill-opacity="0.4"/>
</svg>
