<svg width="20" height="14" viewBox="0 0 20 14" fill="none" xmlns="http://www.w3.org/2000/svg">
<path d="M13.125 7C12.3219 7 11.5453 6.64141 10.9375 5.99063C10.3465 5.35586 9.98555 4.50938 9.92188 3.60781C9.85391 2.64609 10.1473 1.76172 10.7477 1.11719C11.348 0.472656 12.1875 0.125 13.125 0.125C14.0559 0.125 14.8977 0.478906 15.4961 1.12187C16.1004 1.77109 16.3945 2.65391 16.3266 3.60742C16.2613 4.51016 15.9008 5.35625 15.3109 5.99023C14.7047 6.64141 13.9285 7 13.125 7ZM18.2746 13.875H7.97578C7.8102 13.8759 7.64662 13.8388 7.49764 13.7665C7.34865 13.6943 7.21823 13.5888 7.11641 13.4582C7.0084 13.3166 6.93381 13.1525 6.89823 12.978C6.86265 12.8036 6.86699 12.6233 6.91094 12.4508C7.23984 11.1301 8.05469 10.0348 9.26719 9.28359C10.3434 8.61719 11.7133 8.25 13.125 8.25C14.5645 8.25 15.8984 8.60156 16.9809 9.26758C18.1961 10.0148 19.0121 11.1164 19.3395 12.4531C19.3829 12.6258 19.3867 12.806 19.3507 12.9804C19.3148 13.1548 19.2399 13.3188 19.1316 13.4602C19.0299 13.5901 18.8998 13.6951 18.7512 13.767C18.6027 13.8389 18.4397 13.8758 18.2746 13.875ZM5.74219 7.15625C4.36758 7.15625 3.15899 5.87813 3.04688 4.30742C2.99141 3.50273 3.24219 2.75859 3.75 2.21289C4.25235 1.67266 4.96094 1.375 5.74219 1.375C6.52344 1.375 7.22656 1.67422 7.73164 2.21758C8.24336 2.76758 8.49336 3.51016 8.43477 4.3082C8.32266 5.87852 7.11445 7.15625 5.74219 7.15625ZM8.30703 8.38477C7.61992 8.04883 6.72813 7.88086 5.74258 7.88086C4.5918 7.88086 3.47422 8.18086 2.59531 8.72539C1.59883 9.34375 0.928517 10.2441 0.657814 11.3313C0.618199 11.4876 0.614452 11.6509 0.646853 11.8089C0.679255 11.9669 0.746967 12.1156 0.844923 12.2437C0.937872 12.3631 1.05695 12.4595 1.193 12.5256C1.32904 12.5917 1.47844 12.6257 1.62969 12.625H5.96563C6.03881 12.625 6.10967 12.5993 6.16585 12.5524C6.22203 12.5055 6.25997 12.4404 6.27305 12.3684C6.27734 12.3438 6.28281 12.3191 6.28906 12.2949C6.62031 10.9645 7.39649 9.84023 8.54336 9.0207C8.58554 8.9903 8.61947 8.94985 8.64207 8.90301C8.66467 8.85618 8.67523 8.80445 8.67278 8.75251C8.67034 8.70057 8.65497 8.65006 8.62807 8.60556C8.60118 8.56106 8.5636 8.52397 8.51875 8.49766C8.45742 8.46172 8.38711 8.42383 8.30703 8.38477Z" fill="white" fill-opacity="0.4"/>
</svg>
