<svg width="19" height="18" viewBox="0 0 19 18" fill="none" xmlns="http://www.w3.org/2000/svg">
<path d="M3.27084 0.916656C2.58017 0.916656 1.91779 1.19102 1.42941 1.6794C0.941039 2.16778 0.666672 2.83016 0.666672 3.52082V9.97916C0.666672 10.6698 0.941039 11.3322 1.42941 11.8206C1.91779 12.309 2.58017 12.5833 3.27084 12.5833H10.0017L8.56334 11.145C8.30941 10.891 8.16675 10.5466 8.16675 10.1875C8.16675 9.82836 8.30941 9.48394 8.56334 9.22999L9.86167 7.93166L9.41667 7.48666L8.63917 8.26416C8.5908 8.31253 8.53338 8.3509 8.47018 8.37707C8.40698 8.40325 8.33924 8.41672 8.27084 8.41672C8.20243 8.41672 8.1347 8.40325 8.0715 8.37707C8.0083 8.3509 7.95087 8.31253 7.9025 8.26416C7.85413 8.21579 7.81576 8.15836 7.78959 8.09516C7.76341 8.03196 7.74994 7.96423 7.74994 7.89582C7.74994 7.82742 7.76341 7.75968 7.78959 7.69648C7.81576 7.63328 7.85413 7.57586 7.9025 7.52749L8.68001 6.74999L7.9025 5.97249C7.80482 5.8748 7.74994 5.74231 7.74994 5.60416C7.74994 5.466 7.80482 5.33351 7.9025 5.23582C8.00019 5.13813 8.13269 5.08325 8.27084 5.08325C8.40899 5.08325 8.54148 5.13813 8.63917 5.23582L9.41667 6.01332L10.1942 5.23582C10.2919 5.13813 10.4244 5.08325 10.5625 5.08325C10.7007 5.08325 10.8332 5.13813 10.9308 5.23582C11.0285 5.33351 11.0834 5.466 11.0834 5.60416C11.0834 5.74231 11.0285 5.8748 10.9308 5.97249L10.1533 6.74999L10.6717 7.26832C10.9689 7.14587 11.2999 7.13313 11.6056 7.23236C11.9114 7.3316 12.1718 7.53635 12.3404 7.80999C12.3607 7.68842 12.4235 7.57799 12.5176 7.49834C12.6116 7.41869 12.7309 7.37498 12.8542 7.37499H14.7292C14.8673 7.37499 14.9998 7.42986 15.0975 7.52754C15.1951 7.62521 15.25 7.75769 15.25 7.89582C15.25 8.03396 15.1951 8.16643 15.0975 8.26411C14.9998 8.36178 14.8673 8.41666 14.7292 8.41666H12.8542C12.7288 8.41666 12.6133 8.37207 12.5233 8.29791C12.5525 8.47541 12.5467 8.65791 12.5054 8.83332H14.4167C15.525 8.83332 16.5408 9.22666 17.3333 9.88082V3.52082C17.3333 2.83016 17.059 2.16778 16.5706 1.6794C16.0822 1.19102 15.4198 0.916656 14.7292 0.916656H3.27084ZM3.31917 5.23582C3.36754 5.18744 3.42496 5.14907 3.48816 5.12289C3.55136 5.0967 3.6191 5.08323 3.68751 5.08323C3.75591 5.08323 3.82365 5.0967 3.88685 5.12289C3.95005 5.14907 4.00747 5.18744 4.05584 5.23582L4.83334 6.01332L5.61084 5.23582C5.70853 5.13813 5.84102 5.08325 5.97917 5.08325C6.11732 5.08325 6.24982 5.13813 6.34751 5.23582C6.44519 5.33351 6.50007 5.466 6.50007 5.60416C6.50007 5.74231 6.44519 5.8748 6.34751 5.97249L5.57 6.74999L6.34751 7.52749C6.39588 7.57586 6.43425 7.63328 6.46042 7.69648C6.4866 7.75968 6.50007 7.82742 6.50007 7.89582C6.50007 7.96423 6.4866 8.03196 6.46042 8.09516C6.43425 8.15836 6.39588 8.21579 6.34751 8.26416C6.29914 8.31253 6.24171 8.3509 6.17851 8.37707C6.11531 8.40325 6.04758 8.41672 5.97917 8.41672C5.91077 8.41672 5.84303 8.40325 5.77983 8.37707C5.71663 8.3509 5.65921 8.31253 5.61084 8.26416L4.83334 7.48666L4.05584 8.26416C3.95815 8.36184 3.82566 8.41672 3.68751 8.41672C3.54935 8.41672 3.41686 8.36184 3.31917 8.26416C3.22148 8.16647 3.1666 8.03397 3.1666 7.89582C3.1666 7.75767 3.22148 7.62518 3.31917 7.52749L4.09667 6.74999L3.31917 5.97249C3.27079 5.92412 3.23242 5.8667 3.20623 5.8035C3.18005 5.7403 3.16657 5.67256 3.16657 5.60416C3.16657 5.53575 3.18005 5.46801 3.20623 5.40481C3.23242 5.34161 3.27079 5.28419 3.31917 5.23582ZM11.5558 8.88916C11.6535 8.79147 11.7084 8.65897 11.7084 8.52082C11.7084 8.38267 11.6535 8.25018 11.5558 8.15249C11.4582 8.0548 11.3257 7.99992 11.1875 7.99992C11.0494 7.99992 10.9169 8.0548 10.8192 8.15249L9.1525 9.81916C9.10413 9.86752 9.06575 9.92494 9.03957 9.98814C9.01338 10.0513 8.99991 10.1191 8.99991 10.1875C8.99991 10.2559 9.01338 10.3236 9.03957 10.3868C9.06575 10.45 9.10413 10.5075 9.1525 10.5558L10.8192 12.2225C10.9169 12.3202 11.0494 12.3751 11.1875 12.3751C11.3257 12.3751 11.4582 12.3202 11.5558 12.2225C11.6535 12.1248 11.7084 11.9923 11.7084 11.8542C11.7084 11.716 11.6535 11.5835 11.5558 11.4858L10.7783 10.7083H14.4167C14.9336 10.7084 15.4396 10.8564 15.8751 11.1348C16.3106 11.4132 16.6574 11.8104 16.8744 12.2796C17.0914 12.7487 17.1696 13.2701 17.0999 13.7823C17.0301 14.2944 16.8152 14.7759 16.4806 15.1699C16.146 15.5639 15.7056 15.8539 15.2115 16.0056C14.7174 16.1574 14.1902 16.1646 13.6921 16.0264C13.194 15.8882 12.7459 15.6103 12.4007 15.2256C12.0554 14.8409 11.8275 14.3655 11.7438 13.8554C11.7328 13.7879 11.7086 13.7232 11.6726 13.665C11.6366 13.6068 11.5895 13.5563 11.5339 13.5164C11.4784 13.4764 11.4156 13.4478 11.349 13.4321C11.2824 13.4164 11.2134 13.414 11.1458 13.425C11.0783 13.436 11.0136 13.4602 10.9555 13.4962C10.8973 13.5322 10.8468 13.5793 10.8068 13.6348C10.7668 13.6903 10.7382 13.7532 10.7225 13.8198C10.7068 13.8864 10.7044 13.9554 10.7154 14.0229C11.0054 15.8058 12.5517 17.1667 14.4167 17.1667C15.4112 17.1667 16.3651 16.7716 17.0683 16.0683C17.7716 15.365 18.1667 14.4112 18.1667 13.4167C18.1667 12.4221 17.7716 11.4683 17.0683 10.765C16.3651 10.0617 15.4112 9.66666 14.4167 9.66666H10.7783L11.5558 8.88916Z" fill="white" fill-opacity="0.4"/>
</svg>
