<svg width="18" height="18" viewBox="0 0 18 18" fill="none" xmlns="http://www.w3.org/2000/svg">
<path d="M9 5.875C8.38194 5.875 7.77775 6.05828 7.26385 6.40166C6.74994 6.74504 6.3494 7.2331 6.11288 7.80411C5.87636 8.37513 5.81447 9.00347 5.93505 9.60966C6.05563 10.2158 6.35326 10.7727 6.7903 11.2097C7.22733 11.6467 7.78416 11.9444 8.39035 12.065C8.99654 12.1855 9.62487 12.1236 10.1959 11.8871C10.7669 11.6506 11.255 11.2501 11.5983 10.7362C11.9417 10.2223 12.125 9.61807 12.125 9C12.1225 8.17196 11.7925 7.37854 11.207 6.79302C10.6215 6.20751 9.82805 5.87747 9 5.875ZM15.7469 9C15.7453 9.292 15.7239 9.58355 15.6828 9.87266L17.5848 11.3617C17.6676 11.4301 17.7234 11.5257 17.7422 11.6315C17.7611 11.7373 17.7417 11.8463 17.6875 11.9391L15.8883 15.0453C15.8336 15.1373 15.7482 15.207 15.6472 15.2422C15.5462 15.2774 15.436 15.2759 15.3359 15.2379L13.0996 14.3395C12.6339 14.698 12.1243 14.9956 11.5832 15.225L11.2488 17.5992C11.2301 17.7056 11.1751 17.8021 11.093 17.8724C11.011 17.9426 10.9072 17.9822 10.7992 17.9844H7.20079C7.09479 17.9823 6.99262 17.9444 6.91096 17.8768C6.82931 17.8092 6.77298 17.7159 6.75118 17.6121L6.4168 15.2379C5.87417 15.0112 5.36421 14.7131 4.9004 14.3516L2.66407 15.25C2.5641 15.2881 2.45392 15.2896 2.3529 15.2545C2.25187 15.2193 2.16648 15.1497 2.11172 15.0578L0.312505 11.952C0.258348 11.8592 0.238946 11.7502 0.257766 11.6444C0.276586 11.5386 0.332402 11.443 0.415239 11.3746L2.31719 9.88555C2.27662 9.59207 2.25523 9.29626 2.25313 9C2.25476 8.708 2.27616 8.41645 2.31719 8.12734L0.415239 6.63828C0.332402 6.56988 0.276586 6.47426 0.257766 6.36849C0.238946 6.26272 0.258348 6.15371 0.312505 6.06094L2.11172 2.95469C2.16642 2.86273 2.25179 2.79301 2.35282 2.75779C2.45384 2.72256 2.56406 2.72409 2.66407 2.76211L4.9004 3.66055C5.36607 3.30196 5.87567 3.00436 6.4168 2.775L6.75118 0.400781C6.76989 0.294433 6.82496 0.197885 6.90696 0.127634C6.98897 0.0573842 7.09283 0.0177925 7.20079 0.015625H10.7992C10.9052 0.0176881 11.0074 0.0556216 11.089 0.123233C11.1707 0.190844 11.227 0.28414 11.2488 0.387891L11.5832 2.76211C12.1265 2.98866 12.6371 3.28674 13.1016 3.64844L15.3359 2.75C15.4359 2.71195 15.5461 2.71036 15.6471 2.74551C15.7481 2.78066 15.8335 2.8503 15.8883 2.94219L17.6875 6.04844C17.7417 6.14121 17.7611 6.25023 17.7422 6.35599C17.7234 6.46176 17.6676 6.55738 17.5848 6.62578L15.6828 8.11484C15.7234 8.40819 15.7448 8.70387 15.7469 9Z" fill="white" fill-opacity="0.4"/>
</svg>
