<svg width="18" height="14" viewBox="0 0 18 14" fill="none" xmlns="http://www.w3.org/2000/svg">
<path d="M8.125 8.37501L6.97917 7.22918C6.8125 7.06251 6.61112 6.97918 6.375 6.97918C6.13889 6.97918 5.9375 7.06251 5.77084 7.22918C5.60417 7.39584 5.52084 7.59723 5.52084 7.83334C5.52084 8.06945 5.60417 8.27084 5.77084 8.43751L7.54167 10.2083C7.70834 10.375 7.90278 10.4583 8.125 10.4583C8.34723 10.4583 8.54167 10.375 8.70834 10.2083L12.2292 6.68751C12.3958 6.52084 12.4792 6.31945 12.4792 6.08334C12.4792 5.84723 12.3958 5.64584 12.2292 5.47918C12.0625 5.31251 11.8611 5.22918 11.625 5.22918C11.3889 5.22918 11.1875 5.31251 11.0208 5.47918L8.125 8.37501ZM2.33334 3.66668H15.6667V2.00001H2.33334V3.66668ZM2.33334 13.6667C1.875 13.6667 1.48278 13.5036 1.15667 13.1775C0.830561 12.8514 0.667227 12.4589 0.666672 12V2.00001C0.666672 1.54168 0.830005 1.14945 1.15667 0.823343C1.48334 0.497232 1.87556 0.333899 2.33334 0.333344H15.6667C16.125 0.333344 16.5175 0.496677 16.8442 0.823343C17.1708 1.15001 17.3339 1.54223 17.3333 2.00001V12C17.3333 12.4583 17.1703 12.8508 16.8442 13.1775C16.5181 13.5042 16.1256 13.6672 15.6667 13.6667H2.33334Z" fill="white" fill-opacity="0.4"/>
</svg>
