<svg width="16" height="20" viewBox="0 0 16 20" fill="none" xmlns="http://www.w3.org/2000/svg">
<path d="M6.66665 3.99999H5.33332V0.666665C5.33332 0.489855 5.40356 0.320286 5.52858 0.195262C5.65361 0.0702377 5.82318 0 5.99999 0C6.1768 0 6.34637 0.0702377 6.47139 0.195262C6.59641 0.320286 6.66665 0.489855 6.66665 0.666665V3.99999ZM12 9.63498V5.33332C12 4.9797 11.8595 4.64056 11.6095 4.39051C11.3594 4.14047 11.0203 3.99999 10.6666 3.99999H6.66665V9.05748L8.19498 7.52832C8.25692 7.46638 8.33046 7.41724 8.41138 7.38372C8.49231 7.3502 8.57905 7.33295 8.66665 7.33295C8.75424 7.33295 8.84098 7.3502 8.92191 7.38372C9.00284 7.41724 9.07637 7.46638 9.13831 7.52832C9.20025 7.59026 9.24939 7.66379 9.28291 7.74472C9.31643 7.82565 9.33368 7.91239 9.33368 7.99998C9.33368 8.08758 9.31643 8.17432 9.28291 8.25525C9.24939 8.33617 9.20025 8.40971 9.13831 8.47165L6.47165 11.1383C6.40974 11.2003 6.33621 11.2495 6.25528 11.283C6.17435 11.3166 6.0876 11.3338 5.99999 11.3338C5.91238 11.3338 5.82563 11.3166 5.74469 11.283C5.66376 11.2495 5.59024 11.2003 5.52832 11.1383L2.86166 8.47165C2.73657 8.34656 2.66629 8.17689 2.66629 7.99998C2.66629 7.82307 2.73657 7.65341 2.86166 7.52832C2.98675 7.40322 3.15642 7.33295 3.33333 7.33295C3.51024 7.33295 3.6799 7.40322 3.80499 7.52832L5.33332 9.05748V3.99999H1.33333C0.979709 3.99999 0.640571 4.14047 0.390523 4.39051C0.140475 4.64056 0 4.9797 0 5.33332V16C0 16.1768 0.0702379 16.3463 0.195262 16.4714C0.320286 16.5964 0.489855 16.6666 0.666665 16.6666H6.89165C6.91832 16.7225 6.94749 16.7783 6.97915 16.8333L6.99915 16.865L8.85415 19.6983C8.95095 19.8463 9.10257 19.9497 9.27565 19.9859C9.44873 20.0221 9.62909 19.988 9.77706 19.8912C9.92503 19.7944 10.0285 19.6428 10.0647 19.4697C10.1008 19.2966 10.0668 19.1163 9.96998 18.9683L8.12582 16.1525C7.99509 15.9216 7.96142 15.6483 8.03221 15.3926C8.10301 15.1369 8.27247 14.9199 8.50331 14.7891C8.73416 14.6584 9.00749 14.6247 9.26316 14.6955C9.51884 14.7663 9.73592 14.9358 9.86664 15.1666C9.87248 15.1775 9.87915 15.1883 9.88581 15.1983L10.7758 16.5575C10.8545 16.6774 10.9698 16.7688 11.1045 16.8181C11.2393 16.8673 11.3863 16.8718 11.5238 16.8308C11.6613 16.7898 11.7819 16.7055 11.8677 16.5905C11.9535 16.4755 11.9999 16.3359 12 16.1925V11.3333C12.6283 11.915 13.1302 12.6198 13.4743 13.4039C13.8184 14.188 13.9973 15.0345 14 15.8908V19.3333C14 19.5101 14.0702 19.6797 14.1952 19.8047C14.3203 19.9297 14.4898 20 14.6666 20C14.8434 20 15.013 19.9297 15.138 19.8047C15.2631 19.6797 15.3333 19.5101 15.3333 19.3333V15.8875C15.3295 14.6525 15.0238 13.4372 14.4429 12.3474C13.8619 11.2576 13.0232 10.3264 12 9.63498Z" fill="white" fill-opacity="0.4"/>
</svg>
